<?xml version="1.0" encoding="UTF-8" standalone="no"?>
<!-- Created with Inkscape (http://www.inkscape.org/) -->

<svg
   version="1.1"
   id="svg1"
   width="288.78668"
   height="153.896"
   viewBox="0 0 288.78668 153.896"
   sodipodi:docname="receptionist-activity.svg"
   inkscape:version="1.3.2 (091e20e, 2023-11-25, custom)"
   xmlns:inkscape="http://www.inkscape.org/namespaces/inkscape"
   xmlns:sodipodi="http://sodipodi.sourceforge.net/DTD/sodipodi-0.dtd"
   xmlns="http://www.w3.org/2000/svg"
   xmlns:svg="http://www.w3.org/2000/svg">
  <defs
     id="defs1" />
  <sodipodi:namedview
     id="namedview1"
     pagecolor="#ffffff"
     bordercolor="#000000"
     borderopacity="0.25"
     inkscape:showpageshadow="2"
     inkscape:pageopacity="0.0"
     inkscape:pagecheckerboard="0"
     inkscape:deskcolor="#d1d1d1"
     inkscape:zoom="5.0106188"
     inkscape:cx="144.39334"
     inkscape:cy="76.936605"
     inkscape:window-width="1920"
     inkscape:window-height="1147"
     inkscape:window-x="-8"
     inkscape:window-y="-8"
     inkscape:window-maximized="1"
     inkscape:current-layer="g1">
    <inkscape:page
       x="0"
       y="0"
       inkscape:label="1"
       id="page1"
       width="288.78668"
       height="153.896"
       margin="0"
       bleed="0" />
  </sodipodi:namedview>
  <g
     id="g1"
     inkscape:groupmode="layer"
     inkscape:label="1">
    <path
       id="path1"
       d="M 19.67184,0 C 19.67184,10.8646 10.8646,19.67184 0,19.67184 -10.8646,19.67184 -19.67184,10.8646 -19.67184,0 c 0,-10.8646 8.80724,-19.67184 19.67184,-19.67184 10.8646,0 19.67184,8.80724 19.67184,19.67184 z"
       style="fill:none;stroke:#000000;stroke-width:0.49814;stroke-linecap:butt;stroke-linejoin:miter;stroke-miterlimit:10;stroke-dasharray:none;stroke-opacity:1"
       transform="matrix(1.3333333,0,0,-1.3333333,31.006667,122.88933)" />
    <path
       id="path2"
       d="m 3.9622109,-6.9381641 c -0.046875,-0.1289062 -0.070312,-0.1992187 -0.2226562,-0.1992187 -0.1640625,0 -0.1875,0.058594 -0.2460938,0.1992187 l -2.0625,5.96484379 c -0.1757812,0.50390625 -0.57421871,0.65625 -1.11328121,0.66796875 v 0.3046874975 c 0.234375,-0.0117187475 0.65625,-0.0351562475 1.01953121,-0.0351562475 0.3046875,0 0.8203125,0.0234375 1.1484375,0.0351562475 V -0.30535156 c -0.5039062,0 -0.75,-0.2578125 -0.75,-0.515625 0,-0.0234375 0.011719,-0.12890625 0.023437,-0.140625 L 2.2161172,-2.2741016 h 2.4609375 l 0.5273437,1.52343754 c 0.011719,0.046875 0.023437,0.10546875 0.023437,0.140625 0,0.3046875 -0.5507812,0.3046875 -0.8203125,0.3046875 V -6.640625e-4 C 4.7590859,-0.03582031 5.4622109,-0.03582031 5.8372109,-0.03582031 c 0.4335938,0 0.890625,0.01171875 1.3007813,0.0351562475 V -0.30535156 H 6.9622109 c -0.5976562,0 -0.7382812,-0.0703125 -0.84375,-0.3984375 z m -0.5273437,1.125 1.125,3.234375 H 2.3215859 Z m 5.7011719,2.5078125 v -1.1015625 l -1.3828125,0.1171875 v 0.3046875 c 0.6914062,0 0.7734375,0.070312 0.7734375,0.5625 v 2.66015629 c 0,0.45703125 -0.1054688,0.45703125 -0.7734375,0.45703125 V -6.640625e-4 C 8.1399453,-0.01238281 8.6086953,-0.03582031 8.8899453,-0.03582031 c 0.3984375,0 0.8671875,0 1.2656247,0.0351562475 V -0.30535156 H 9.9446328 c -0.7382812,0 -0.7617187,-0.1171875 -0.7617187,-0.46875 V -2.3092578 c 0,-0.984375 0.421875,-1.875 1.1835939,-1.875 0.05859,0 0.08203,0 0.105469,0.011719 -0.03516,0.011719 -0.234375,0.1289063 -0.234375,0.3867188 0,0.28125 0.210937,0.4335937 0.433593,0.4335937 0.175782,0 0.421875,-0.1289062 0.421875,-0.4453125 0,-0.3164062 -0.304687,-0.609375 -0.726562,-0.609375 -0.7382814,0 -1.0898439,0.6679688 -1.2304689,1.1015622 z m 3.9023439,0 v -1.1015625 l -1.382813,0.1171875 v 0.3046875 c 0.691407,0 0.773438,0.070312 0.773438,0.5625 v 2.66015629 c 0,0.45703125 -0.105469,0.45703125 -0.773438,0.45703125 V -6.640625e-4 C 12.042289,-0.01238281 12.511039,-0.03582031 12.792289,-0.03582031 c 0.398438,0 0.867188,0 1.265625,0.0351562475 V -0.30535156 h -0.210937 c -0.738282,0 -0.761719,-0.1171875 -0.761719,-0.46875 V -2.3092578 c 0,-0.984375 0.421875,-1.875 1.183594,-1.875 0.05859,0 0.08203,0 0.105468,0.011719 -0.03516,0.011719 -0.234375,0.1289063 -0.234375,0.3867188 0,0.28125 0.210938,0.4335937 0.433594,0.4335937 0.175781,0 0.421875,-0.1289062 0.421875,-0.4453125 0,-0.3164062 -0.304687,-0.609375 -0.726562,-0.609375 -0.738282,0 -1.089844,0.6679688 -1.230469,1.1015622 z m 3.996094,-1.1015625 -1.394532,0.1171875 v 0.3046875 c 0.65625,0 0.738282,0.058594 0.738282,0.5507813 v 2.67187499 c 0,0.45703125 -0.105469,0.45703125 -0.773438,0.45703125 V -6.640625e-4 C 15.921195,-0.01238281 16.460258,-0.03582031 16.706352,-0.03582031 c 0.339843,0 0.691406,0.0234375 1.03125,0.0351562475 V -0.30535156 c -0.65625,0 -0.703125,-0.0585938 -0.703125,-0.4453125 z m 0.04687,-1.734375 c 0,-0.3164062 -0.246094,-0.5273437 -0.527344,-0.5273437 -0.316406,0 -0.527344,0.2695312 -0.527344,0.5273437 0,0.2695313 0.210938,0.5273438 0.527344,0.5273438 0.28125,0 0.527344,-0.1992188 0.527344,-0.5273438 z m 5.112304,2.8242188 c 0.08203,-0.234375 0.257813,-0.65625 0.914063,-0.6679688 v -0.3046875 c -0.234375,0.011719 -0.515625,0.023437 -0.75,0.023437 -0.234375,0 -0.691407,-0.023437 -0.867188,-0.023437 v 0.3046875 c 0.375,0.011719 0.480469,0.234375 0.480469,0.4335938 0,0.082031 -0.02344,0.1289062 -0.05859,0.234375 l -1.01953,2.54296874 -1.113281,-2.77734374 C 19.721,-3.6920703 19.721,-3.7037891 19.721,-3.7272266 c 0,-0.2578125 0.386719,-0.2578125 0.5625,-0.2578125 v -0.3046875 c -0.292969,0 -0.855469,0.023437 -1.078125,0.023437 -0.269531,0 -0.667969,-0.011719 -0.972656,-0.023437 v 0.3046875 c 0.632812,0 0.667968,0.058594 0.796875,0.3632813 L 20.471,-0.08269531 c 0.05859,0.140625 0.07031,0.1875 0.199219,0.1875 0.128906,0 0.175781,-0.08203125 0.210937,-0.1875 z m 1.942383,0.8085937 c 0.05859,-1.4882812 0.902344,-1.734375 1.242188,-1.734375 1.019531,0 1.125,1.3476563 1.125,1.734375 z m -0.01172,0.2109375 h 2.789063 c 0.210937,0 0.246094,0 0.246094,-0.2109375 0,-0.984375 -0.539063,-1.9570312 -1.78125,-1.9570312 -1.160157,0 -2.074219,1.03125 -2.074219,2.2734375 0,1.33593749 1.042969,2.29687499 2.191406,2.29687499 1.21875,0 1.664063,-1.1015625 1.664063,-1.28906249 0,-0.1054688 -0.08203,-0.1171875 -0.128907,-0.1171875 -0.09375,0 -0.117187,0.058594 -0.128906,0.140625 -0.351562,1.01953124 -1.253906,1.01953124 -1.347656,1.01953124 -0.503906,0 -0.902344,-0.29296875 -1.125,-0.66796875 C 24.12432,-1.2897266 24.12432,-1.9459766 24.12432,-2.2975391 Z m 0,0"
       style="fill:#000000;fill-opacity:1;fill-rule:nonzero;stroke:none"
       aria-label="Arrive"
       transform="matrix(1.3333333,0,0,1.3333333,12.705333,127.42667)" />
    <path
       id="path3"
       d="M 53.37305,-17.71674 H 116.7078 V 17.71675 H 53.37305 Z"
       style="fill:none;stroke:#000000;stroke-width:0.49814;stroke-linecap:butt;stroke-linejoin:miter;stroke-miterlimit:10;stroke-dasharray:none;stroke-opacity:1"
       transform="matrix(1.3333333,0,0,-1.3333333,31.006667,122.88933)" />
    <path
       id="path4"
       d="m 9.0579141,-5.8244453 c 0.1757812,-0.5742188 0.609375,-0.6679688 0.9960939,-0.6679688 v -0.3164062 c -0.3046877,0.023437 -0.6093752,0.035156 -0.9140627,0.035156 -0.28125,0 -0.9257812,-0.023437 -1.1835937,-0.035156 v 0.3164062 c 0.6679687,0.011719 0.8671875,0.3398438 0.8671875,0.5273438 0,0.058594 -0.023437,0.140625 -0.046875,0.1992187 l -1.5,4.6054688 -1.59375,-4.8867188 c 0,-0.035156 -0.023437,-0.09375 -0.023437,-0.1523437 0,-0.2929688 0.5742187,-0.2929688 0.8320312,-0.2929688 v -0.3164062 c -0.3515625,0.035156 -1.03125,0.035156 -1.40625,0.035156 -0.3867187,0 -0.8085937,-0.023437 -1.21875,-0.035156 v 0.3164062 c 0.5625,0 0.7734375,0 0.890625,0.3515625 l 0.2226563,0.703125 -1.3828125,4.2773438 -1.6054688,-4.9101563 c -0.011719,-0.023437 -0.023437,-0.09375 -0.023437,-0.1289062 0,-0.2929688 0.5859375,-0.2929688 0.84375,-0.2929688 v -0.3164062 c -0.3632812,0.035156 -1.0429687,0.035156 -1.4179687,0.035156 -0.375,0 -0.80859379,-0.023437 -1.21875004,-0.035156 v 0.3164062 c 0.75,0 0.78515625,0.046875 0.91406254,0.4101563 l 1.9921875,6.11718749 c 0.023437,0.08203125 0.058594,0.1875 0.1875,0.1875 0.140625,0 0.1523437,-0.0703125 0.1992187,-0.19921875 l 1.640625,-5.06250004 1.6523438,5.07421879 c 0.035156,0.08203125 0.058594,0.1875 0.1875,0.1875 0.140625,0 0.1640625,-0.0703125 0.1992187,-0.19921875 z m 3.6708989,5.06249999 c 0.03516,0.3984375 0.304687,0.8203125 0.773437,0.8203125 0.210938,0 0.820313,-0.140625 0.820313,-0.94921875 V -1.4416328 h -0.246094 v 0.55078124 c 0,0.5859375 -0.246094,0.64453125 -0.363281,0.64453125 -0.328125,0 -0.363282,-0.45703125 -0.363282,-0.50390625 V -2.7424141 c 0,-0.4101562 0,-0.8085937 -0.363281,-1.171875 -0.386719,-0.3867187 -0.878906,-0.5507812 -1.359375,-0.5507812 -0.820312,0 -1.511719,0.46875 -1.511719,1.125 0,0.3046875 0.199219,0.46875 0.457032,0.46875 0.28125,0 0.46875,-0.1992188 0.46875,-0.4570313 0,-0.1171875 -0.05859,-0.4453125 -0.515625,-0.4570312 0.269531,-0.3515625 0.761718,-0.4570313 1.078125,-0.4570313 0.492187,0 1.054687,0.3867188 1.054687,1.2773438 v 0.3632812 c -0.503906,0.035156 -1.207031,0.058594 -1.828125,0.3632813 -0.75,0.3398437 -0.9960937,0.8554687 -0.9960937,1.28906249 0,0.80859375 0.9609377,1.0546875 1.5937497,1.0546875 0.65625,0 1.113282,-0.3984375 1.300782,-0.8671875 z M 12.6585,-2.3908516 v 0.9960938 c 0,0.94921874 -0.714844,1.28906249 -1.160156,1.28906249 -0.492188,0 -0.902344,-0.3515625 -0.902344,-0.85546875 0,-0.53906254 0.421875,-1.37109374 2.0625,-1.42968754 z m 3.492188,-2.015625 -1.394532,0.1171875 v 0.3046875 c 0.65625,0 0.738282,0.058594 0.738282,0.5507813 v 2.67187499 c 0,0.45703125 -0.105469,0.45703125 -0.773438,0.45703125 V -2.265625e-4 C 15.037406,-0.01194531 15.576469,-0.03538281 15.822563,-0.03538281 c 0.339843,0 0.691406,0.0234375 1.03125,0.0351562475 V -0.30491406 c -0.65625,0 -0.703125,-0.0585938 -0.703125,-0.4453125 z m 0.04687,-1.734375 c 0,-0.3164062 -0.246094,-0.5273437 -0.527344,-0.5273437 -0.316406,0 -0.527344,0.2695312 -0.527344,0.5273437 0,0.2695313 0.210938,0.5273438 0.527344,0.5273438 0.28125,0 0.527344,-0.1992188 0.527344,-0.5273438 z m 2.686523,2.15625 h 1.429687 v -0.3046875 h -1.429687 v -1.8398437 h -0.246094 c -0.01172,0.8203125 -0.316406,1.8867187 -1.289062,1.921875 v 0.2226562 h 0.84375 v 2.7539063 c 0,1.21874999 0.925781,1.33593749 1.289062,1.33593749 0.703125,0 0.984375,-0.703125 0.984375,-1.33593749 v -0.5742188 h -0.246094 v 0.5507813 c 0,0.73828124 -0.304687,1.11328124 -0.667968,1.11328124 -0.667969,0 -0.667969,-0.90234374 -0.667969,-1.07812504 z M -4.3834922,7.6667656 V 6.5066094 c 0,-0.8789063 0.4804688,-1.359375 0.9140625,-1.359375 0.035156,0 0.1757813,0 0.328125,0.070312 -0.1171875,0.046875 -0.2929687,0.1757812 -0.2929687,0.421875 0,0.234375 0.1523437,0.4335937 0.421875,0.4335937 0.2929687,0 0.4335937,-0.1992187 0.4335937,-0.4453125 0,-0.3632812 -0.3632812,-0.6914062 -0.890625,-0.6914062 -0.703125,0 -1.546875,0.5273437 -1.546875,1.5820312 v 1.1484375 h -0.7851562 v 0.3046875 h 0.7851562 v 3.2226564 c 0,0.457032 -0.1054687,0.457032 -0.7734375,0.457032 v 0.304687 c 0.3867188,-0.01172 0.8554688,-0.03516 1.1367188,-0.03516 0.3984375,0 0.8671875,0 1.265625,0.03516 v -0.304687 h -0.2109375 c -0.7382813,0 -0.7617188,-0.117188 -0.7617188,-0.46875 V 7.9714531 h 1.1367188 V 7.6667656 Z m 5.9853516,2.15625 c 0,-1.2773437 -0.99609377,-2.3320312 -2.19140627,-2.3320312 -1.25390623,0 -2.21484373,1.0898437 -2.21484373,2.3320312 0,1.2890624 1.03125,2.2382814 2.20312498,2.2382814 1.20703125,0 2.20312502,-0.972656 2.20312502,-2.2382814 z m -2.19140627,1.9921874 c -0.43359373,0 -0.86718753,-0.210937 -1.13671873,-0.667969 -0.2578125,-0.433593 -0.2578125,-1.042968 -0.2578125,-1.4062496 0,-0.3867188 0,-0.9257813 0.2460937,-1.359375 0.2695313,-0.4570313 0.73828128,-0.6679688 1.13671878,-0.6679688 0.43359375,0 0.8671875,0.2226563 1.125,0.6445313 0.2578125,0.4335937 0.2578125,1.0078125 0.2578125,1.3828125 0,0.3632816 0,0.9023436 -0.22265625,1.3359376 -0.22265625,0.445312 -0.65625,0.738281 -1.1484375,0.738281 z M 3.5588906,8.6511406 V 7.5495781 L 2.1760781,7.6667656 v 0.3046875 c 0.6914063,0 0.7734375,0.070312 0.7734375,0.5625 v 2.6601559 c 0,0.457032 -0.1054687,0.457032 -0.7734375,0.457032 v 0.304687 c 0.3867188,-0.01172 0.8554688,-0.03516 1.1367188,-0.03516 0.3984375,0 0.8671875,0 1.265625,0.03516 V 11.651141 H 4.3674844 c -0.7382813,0 -0.7617188,-0.117188 -0.7617188,-0.46875 V 9.6472344 c 0,-0.984375 0.421875,-1.875 1.1835938,-1.875 0.058594,0 0.082031,0 0.1054687,0.011719 -0.035156,0.011719 -0.234375,0.1289063 -0.234375,0.3867188 0,0.28125 0.2109375,0.4335937 0.4335938,0.4335937 0.1757812,0 0.421875,-0.1289062 0.421875,-0.4453125 0,-0.3164062 -0.3046875,-0.609375 -0.7265625,-0.609375 -0.7382813,0 -1.0898438,0.6679688 -1.2304688,1.1015622 z M 10.839164,7.9714531 h 1.429688 V 7.6667656 H 10.839164 V 5.8269219 H 10.59307 c -0.01172,0.8203125 -0.316406,1.8867187 -1.2890622,1.921875 v 0.2226562 h 0.8437502 v 2.7539059 c 0,1.21875 0.925781,1.335938 1.289062,1.335938 0.703125,0 0.984375,-0.703125 0.984375,-1.335938 v -0.574218 h -0.246093 v 0.550781 c 0,0.738281 -0.304688,1.113281 -0.667969,1.113281 -0.667969,0 -0.667969,-0.902344 -0.667969,-1.078125 z m 5.466797,3.2226559 c 0.03516,0.398438 0.304687,0.820313 0.773437,0.820313 0.210938,0 0.820313,-0.140625 0.820313,-0.949219 v -0.550781 h -0.246094 v 0.550781 c 0,0.585938 -0.246094,0.644531 -0.363281,0.644531 -0.328125,0 -0.363281,-0.457031 -0.363281,-0.503906 V 9.2136406 c 0,-0.4101562 0,-0.8085937 -0.363282,-1.171875 -0.386718,-0.3867187 -0.878906,-0.5507812 -1.359375,-0.5507812 -0.820312,0 -1.511718,0.46875 -1.511718,1.125 0,0.3046875 0.199218,0.46875 0.457031,0.46875 0.28125,0 0.46875,-0.1992188 0.46875,-0.4570313 0,-0.1171875 -0.05859,-0.4453125 -0.515625,-0.4570312 0.269531,-0.3515625 0.761719,-0.4570313 1.078125,-0.4570313 0.492187,0 1.054687,0.3867188 1.054687,1.2773438 v 0.3632812 c -0.503906,0.035156 -1.207031,0.058594 -1.828125,0.3632813 -0.75,0.3398441 -0.996093,0.8554691 -0.996093,1.2890621 0,0.808594 0.960937,1.054688 1.59375,1.054688 0.65625,0 1.113281,-0.398438 1.300781,-0.867188 z m -0.07031,-1.6289059 v 0.9960939 c 0,0.949219 -0.714843,1.289062 -1.160156,1.289062 -0.492187,0 -0.902344,-0.351562 -0.902344,-0.855468 0,-0.539063 0.421875,-1.3710941 2.0625,-1.4296879 z m 3.811524,0.4570309 c 0.222656,0.03516 1.03125,0.199219 1.03125,0.914063 0,0.515625 -0.351563,0.914062 -1.125,0.914062 -0.832031,0 -1.195313,-0.574218 -1.382813,-1.417968 -0.03516,-0.128907 -0.03516,-0.175782 -0.140625,-0.175782 -0.128906,0 -0.128906,0.07031 -0.128906,0.257813 v 1.3125 c 0,0.164062 0,0.234375 0.105469,0.234375 0.05859,0 0.07031,0 0.257812,-0.199219 0.01172,-0.01172 0.01172,-0.03516 0.199219,-0.222656 0.433594,0.421875 0.878906,0.421875 1.089844,0.421875 1.148437,0 1.605469,-0.667969 1.605469,-1.382813 0,-0.527343 -0.292969,-0.8203121 -0.421875,-0.9492184 C 20.808894,9.4128594 20.422175,9.3308281 20.0003,9.2605156 19.449519,9.1433281 18.78155,9.0144219 18.78155,8.4402031 c 0,-0.3515625 0.257812,-0.7617187 1.113281,-0.7617187 1.101563,0 1.148438,0.9023437 1.171875,1.2070312 0,0.09375 0.09375,0.09375 0.117188,0.09375 0.128906,0 0.128906,-0.046875 0.128906,-0.2460937 V 7.7370781 c 0,-0.1757812 0,-0.2460937 -0.117188,-0.2460937 -0.04687,0 -0.07031,0 -0.199218,0.1171875 -0.02344,0.046875 -0.128907,0.1289062 -0.164063,0.1640625 -0.375,-0.28125 -0.785156,-0.28125 -0.9375,-0.28125 -1.21875,0 -1.59375,0.6679687 -1.59375,1.2304687 0,0.3398438 0.164063,0.6210938 0.433594,0.84375 0.316406,0.2578125 0.597656,0.3164063 1.3125,0.4570309 z m 2.90918,1.171875 c 0,0.457032 -0.105469,0.457032 -0.773438,0.457032 v 0.304687 c 0.328125,-0.01172 0.796875,-0.03516 1.078125,-0.03516 0.304688,0 0.703125,0.01172 1.101563,0.03516 v -0.304687 c -0.667969,0 -0.773438,0 -0.773438,-0.457032 V 10.174578 L 24.22198,9.6237969 c 0.773437,1.0546871 1.183593,1.6171871 1.183593,1.7929691 0,0.1875 -0.164062,0.234375 -0.351562,0.234375 v 0.304687 c 0.269531,-0.01172 0.867187,-0.03516 1.066406,-0.03516 0.292969,0 0.585938,0.01172 0.867188,0.03516 v -0.304687 c -0.363282,0 -0.585938,0 -0.960938,-0.527344 L 24.761039,9.3308281 c -0.01172,-0.011719 -0.05859,-0.070312 -0.05859,-0.1054687 0,-0.035156 0.703125,-0.6328125 0.808594,-0.7148438 0.621094,-0.5039062 1.042969,-0.5273437 1.253906,-0.5390625 V 7.6667656 c -0.292968,0.023437 -0.421875,0.023437 -0.703125,0.023437 -0.351562,0 -0.972656,-0.023437 -1.113281,-0.023437 v 0.3046875 c 0.1875,0.011719 0.292969,0.1171875 0.292969,0.2460938 0,0.1992187 -0.140625,0.3164062 -0.222656,0.3867187 l -1.40625,1.21875 v -4.78125 l -1.429688,0.1054688 v 0.3164062 c 0.691406,0 0.773438,0.070312 0.773438,0.5507813 z m 0,0"
       style="fill:#000000;fill-opacity:1;fill-rule:nonzero;stroke:none"
       aria-label="Wait&#10;fortask"
       transform="matrix(1.3333333,0,0,1.3333333,130.372,119.45733)" />
    <path
       id="path5"
       d="m 53.32323,10.67989 h 7.08667 v 7.08667 h -7.08667 z"
       style="fill:#ff2300;fill-opacity:1;fill-rule:nonzero;stroke:none"
       transform="matrix(1.3333333,0,0,-1.3333333,31.006667,122.88933)" />
    <path
       id="path6"
       d="M 53.37305,53.15025 H 116.7078 V 88.58374 H 53.37305 Z"
       style="fill:none;stroke:#000000;stroke-width:0.49814;stroke-linecap:butt;stroke-linejoin:miter;stroke-miterlimit:10;stroke-dasharray:none;stroke-opacity:1"
       transform="matrix(1.3333333,0,0,-1.3333333,31.006667,122.88933)" />
    <path
       id="path7"
       d="m 0.56269531,-3.4113672 c 0,2.0625 1.60546879,3.63281251 3.45703129,3.63281251 1.6289062,0 2.6015625,-1.38281251 2.6015625,-2.54296871 0,-0.1054688 0,-0.1757813 -0.1289063,-0.1757813 -0.1054687,0 -0.1054687,0.070312 -0.1171875,0.1640625 -0.082031,1.42968751 -1.1484375,2.23828126 -2.2265625,2.23828126 -0.609375,0 -2.5664062,-0.33984375 -2.5664062,-3.30468746 0,-2.9765625 1.9453125,-3.3164063 2.5546875,-3.3164063 1.078125,0 1.96875,0.9023438 2.1679687,2.3671875 0.023437,0.1289063 0.023437,0.1640625 0.1640625,0.1640625 0.1523438,0 0.1523438,-0.035156 0.1523438,-0.234375 v -2.3671875 c 0,-0.1640625 0,-0.234375 -0.1054688,-0.234375 -0.035156,0 -0.082031,0 -0.1640625,0.1171875 l -0.4921875,0.7382813 c -0.375,-0.3632813 -0.8789062,-0.8554688 -1.8398437,-0.8554688 -1.8632813,0 -3.45703129,1.5820313 -3.45703129,3.609375 z m 7.73437499,2.64843751 c 0,0.45703125 -0.1171875,0.45703125 -0.7851562,0.45703125 v 0.3046875 c 0.3515625,-0.01171875 0.8554687,-0.03515625 1.125,-0.03515625 0.2578125,0 0.7851562,0.0234375 1.1132812,0.03515625 v -0.3046875 c -0.65625,0 -0.7734375,0 -0.7734375,-0.45703125 V -2.5910547 c 0,-1.03125 0.7148438,-1.59375 1.3476562,-1.59375 0.621094,0 0.738281,0.5390625 0.738281,1.1015625 v 2.32031251 c 0,0.45703125 -0.117187,0.45703125 -0.773437,0.45703125 v 0.3046875 c 0.339844,-0.01171875 0.855469,-0.03515625 1.125,-0.03515625 0.257812,0 0.773437,0.0234375 1.113281,0.03515625 v -0.3046875 c -0.515625,0 -0.773437,0 -0.785156,-0.3046875 V -2.5090234 c 0,-0.8554688 0,-1.171875 -0.304688,-1.5234375 -0.140625,-0.1757813 -0.46875,-0.375 -1.042968,-0.375 -0.8437504,0 -1.2773442,0.5976562 -1.4414067,0.984375 v -3.4921875 l -1.4414062,0.1054687 v 0.3164063 c 0.703125,0 0.7851562,0.070312 0.7851562,0.5507812 z M 13.842969,-2.5090234 c 0.05859,-1.4882813 0.902344,-1.734375 1.242187,-1.734375 1.019532,0 1.125,1.3476562 1.125,1.734375 z m -0.01172,0.2109375 h 2.789063 c 0.210937,0 0.246093,0 0.246093,-0.2109375 0,-0.984375 -0.539062,-1.9570313 -1.78125,-1.9570313 -1.160156,0 -2.074218,1.03125 -2.074218,2.2734375 0,1.33593751 1.042968,2.29687501 2.191406,2.29687501 1.21875,0 1.664062,-1.1015625 1.664062,-1.28906251 0,-0.1054687 -0.08203,-0.1171875 -0.128906,-0.1171875 -0.09375,0 -0.117187,0.058594 -0.128906,0.140625 -0.351563,1.01953126 -1.253906,1.01953126 -1.347656,1.01953126 -0.503907,0 -0.902344,-0.29296875 -1.125,-0.66796875 C 13.83125,-1.2902734 13.83125,-1.9465234 13.83125,-2.2980859 Z m 4.485352,0.1289062 c 0,-1.6289062 0.820312,-2.0507812 1.347656,-2.0507812 0.09375,0 0.714844,0.011719 1.066406,0.375 -0.410156,0.023437 -0.46875,0.328125 -0.46875,0.4570312 0,0.2578125 0.1875,0.4570313 0.457031,0.4570313 0.257813,0 0.457032,-0.1640625 0.457032,-0.46875 0,-0.6796875 -0.75,-1.0664063 -1.523438,-1.0664063 -1.242187,0 -2.15625,1.078125 -2.15625,2.3085938 0,1.27734371 0.984375,2.26171871 2.144531,2.26171871 1.335938,0 1.652344,-1.19531251 1.652344,-1.28906251 0,-0.1054687 -0.105469,-0.1054687 -0.128906,-0.1054687 -0.09375,0 -0.117188,0.046875 -0.128906,0.1054687 -0.292969,0.92578126 -0.9375,1.04296876 -1.3125,1.04296876 -0.527344,0 -1.40625,-0.421875 -1.40625,-2.02734376 z m 4.042968,1.40625001 c 0,0.45703125 -0.105468,0.45703125 -0.773437,0.45703125 v 0.3046875 c 0.328125,-0.01171875 0.796875,-0.03515625 1.078125,-0.03515625 0.304687,0 0.703125,0.01171875 1.101562,0.03515625 v -0.3046875 c -0.667968,0 -0.773437,0 -0.773437,-0.45703125 V -1.7824609 l 0.632812,-0.5507813 c 0.773438,1.0546875 1.183594,1.61718751 1.183594,1.79296876 0,0.1875 -0.164062,0.234375 -0.351562,0.234375 v 0.3046875 c 0.269531,-0.01171875 0.867187,-0.03515625 1.066406,-0.03515625 0.292969,0 0.585937,0.01171875 0.867187,0.03515625 v -0.3046875 c -0.363281,0 -0.585937,0 -0.960937,-0.52734375 L 24.164258,-2.6262109 c -0.01172,-0.011719 -0.05859,-0.070312 -0.05859,-0.1054688 0,-0.035156 0.703125,-0.6328125 0.808594,-0.7148437 0.621094,-0.5039063 1.042969,-0.5273438 1.253906,-0.5390625 v -0.3046875 c -0.292969,0.023437 -0.421875,0.023437 -0.703125,0.023437 -0.351562,0 -0.972656,-0.023437 -1.113281,-0.023437 v 0.3046875 c 0.1875,0.011719 0.292969,0.1171875 0.292969,0.2460937 0,0.1992188 -0.140625,0.3164063 -0.222657,0.3867188 l -1.40625,1.21875 v -4.78125 l -1.429687,0.1054687 v 0.3164063 c 0.691406,0 0.773437,0.070312 0.773437,0.5507812 z m 9.290039,-3.64453121 -1.394531,0.1171875 v 0.3046875 c 0.65625,0 0.738281,0.058594 0.738281,0.5507812 v 2.67187501 c 0,0.45703125 -0.105468,0.45703125 -0.773437,0.45703125 v 0.3046875 c 0.316406,-0.01171875 0.855469,-0.03515625 1.101562,-0.03515625 0.339844,0 0.691407,0.0234375 1.03125,0.03515625 v -0.3046875 c -0.65625,0 -0.703125,-0.0585938 -0.703125,-0.4453125 z m 0.04687,-1.734375 c 0,-0.3164063 -0.246093,-0.5273438 -0.527343,-0.5273438 -0.316407,0 -0.527344,0.2695313 -0.527344,0.5273438 0,0.2695312 0.210937,0.5273437 0.527344,0.5273437 0.28125,0 0.527343,-0.1992187 0.527343,-0.5273437 z m 2.06543,2.71875 v 2.66015621 c 0,0.45703125 -0.117187,0.45703125 -0.785156,0.45703125 v 0.3046875 c 0.351562,-0.01171875 0.855469,-0.03515625 1.125,-0.03515625 0.257812,0 0.785156,0.0234375 1.113281,0.03515625 v -0.3046875 c -0.65625,0 -0.773437,0 -0.773437,-0.45703125 V -2.5910547 c 0,-1.03125 0.714843,-1.59375 1.347656,-1.59375 0.621094,0 0.738281,0.5390625 0.738281,1.1015625 v 2.32031251 c 0,0.45703125 -0.117187,0.45703125 -0.773437,0.45703125 v 0.3046875 c 0.339843,-0.01171875 0.855468,-0.03515625 1.125,-0.03515625 0.257812,0 0.773437,0.0234375 1.113281,0.03515625 v -0.3046875 c -0.515625,0 -0.773438,0 -0.785156,-0.3046875 V -2.5090234 c 0,-0.8554688 0,-1.171875 -0.304688,-1.5234375 -0.140625,-0.1757813 -0.46875,-0.375 -1.042969,-0.375 -0.726562,0 -1.195312,0.4335937 -1.476562,1.0546875 v -1.0546875 l -1.40625,0.1171875 v 0.3046875 c 0.703125,0 0.785156,0.070312 0.785156,0.5625 z m 0,0"
       style="fill:#000000;fill-opacity:1;fill-rule:nonzero;stroke:none"
       aria-label="Checkin"
       transform="matrix(1.3333333,0,0,1.3333333,118.93333,33.013333)" />
    <path
       id="path8"
       d="m 189.7527,0 c 0,10.8646 -8.80725,19.67184 -19.67184,19.67184 -10.8646,0 -19.67185,-8.80724 -19.67185,-19.67184 0,-10.8646 8.80725,-19.67184 19.67185,-19.67184 10.86459,0 19.67184,8.80724 19.67184,19.67184 z"
       style="fill:none;stroke:#000000;stroke-width:0.49814;stroke-linecap:butt;stroke-linejoin:miter;stroke-miterlimit:10;stroke-dasharray:none;stroke-opacity:1"
       transform="matrix(1.3333333,0,0,-1.3333333,31.006667,122.88933)" />
    <path
       id="path9"
       d="M 5.8,-2.5670703 H 5.5421875 C 5.4367188,-1.5592578 5.2960938,-0.30535156 3.55,-0.30535156 H 2.7296875 c -0.46875,0 -0.4921875,-0.0703125 -0.4921875,-0.3984375 V -6.0123828 c 0,-0.3398438 0,-0.4804688 0.9492188,-0.4804688 h 0.328125 v -0.3164062 c -0.3632813,0.035156 -1.265625,0.035156 -1.6757813,0.035156 -0.3867187,0 -1.16015625,0 -1.51171875,-0.035156 v 0.3164062 h 0.234375 c 0.77343755,0 0.79687505,0.1054688 0.79687505,0.46875 v 5.25000004 c 0,0.3515625 -0.023437,0.46875 -0.79687505,0.46875 h -0.234375 V -6.640625e-4 H 5.51875 Z m 1.5410156,0.058594 c 0.058594,-1.4882812 0.9023438,-1.734375 1.2421875,-1.734375 1.0195313,0 1.125,1.3476563 1.125,1.734375 z m -0.011719,0.2109375 h 2.7890624 c 0.210938,0 0.246094,0 0.246094,-0.2109375 0,-0.984375 -0.5390627,-1.9570312 -1.7812502,-1.9570312 -1.1601562,0 -2.0742187,1.03125 -2.0742187,2.2734375 0,1.33593749 1.0429687,2.29687499 2.1914062,2.29687499 1.21875,0 1.6640627,-1.1015625 1.6640627,-1.28906249 0,-0.1054688 -0.08203,-0.1171875 -0.128906,-0.1171875 -0.09375,0 -0.117188,0.058594 -0.128906,0.140625 -0.3515632,1.01953124 -1.2539069,1.01953124 -1.3476569,1.01953124 -0.5039063,0 -0.9023438,-0.29296875 -1.125,-0.66796875 C 7.3292969,-1.2897266 7.3292969,-1.9459766 7.3292966,-2.2975388 Z m 6.6416014,1.53515629 c 0.03516,0.3984375 0.304688,0.8203125 0.773438,0.8203125 0.210937,0 0.820312,-0.140625 0.820312,-0.94921875 V -1.4420703 h -0.246093 v 0.55078124 c 0,0.5859375 -0.246094,0.64453125 -0.363282,0.64453125 -0.328125,0 -0.363281,-0.45703125 -0.363281,-0.50390625 V -2.7428516 c 0,-0.4101562 0,-0.8085937 -0.363281,-1.171875 -0.386719,-0.3867187 -0.878906,-0.5507812 -1.359375,-0.5507812 -0.820313,0 -1.511719,0.46875 -1.511719,1.125 0,0.3046875 0.199219,0.46875 0.457031,0.46875 0.28125,0 0.46875,-0.1992188 0.46875,-0.4570313 0,-0.1171875 -0.05859,-0.4453125 -0.515625,-0.4570312 0.269532,-0.3515625 0.761719,-0.4570313 1.078125,-0.4570313 0.492188,0 1.054688,0.3867188 1.054688,1.2773438 v 0.3632812 c -0.503906,0.035156 -1.207031,0.058594 -1.828125,0.3632813 -0.75,0.3398437 -0.996094,0.8554687 -0.996094,1.28906249 0,0.80859375 0.960938,1.0546875 1.59375,1.0546875 0.65625,0 1.113281,-0.3984375 1.300781,-0.8671872 z m -0.07031,-1.62890629 v 0.9960938 c 0,0.94921874 -0.714844,1.28906249 -1.160156,1.28906249 -0.492188,0 -0.902344,-0.3515625 -0.902344,-0.85546875 0,-0.53906254 0.421875,-1.37109374 2.0625,-1.42968754 z M 19.50508,-3.31707 c 0.08203,-0.234375 0.257813,-0.65625 0.914063,-0.6679688 v -0.3046875 c -0.234375,0.011719 -0.515625,0.023437 -0.75,0.023437 -0.234375,0 -0.691407,-0.023437 -0.867188,-0.023437 v 0.3046875 c 0.375,0.011719 0.480469,0.234375 0.480469,0.4335938 0,0.082031 -0.02344,0.1289062 -0.05859,0.234375 L 18.204303,-0.77410126 17.091022,-3.551445 c -0.05859,-0.140625 -0.05859,-0.1523438 -0.05859,-0.1757813 0,-0.2578125 0.386719,-0.2578125 0.5625,-0.2578125 v -0.3046875 c -0.292969,0 -0.855469,0.023437 -1.078125,0.023437 -0.269531,0 -0.667969,-0.011719 -0.972656,-0.023437 v 0.3046875 c 0.632812,0 0.667968,0.058594 0.796875,0.3632813 l 1.441406,3.53906249 c 0.05859,0.140625 0.07031,0.1875 0.199219,0.1875 0.128906,0 0.175781,-0.08203125 0.210937,-0.1875 z m 1.945313,0.8085937 c 0.05859,-1.4882812 0.902343,-1.734375 1.242187,-1.734375 1.019531,0 1.125,1.3476563 1.125,1.734375 z m -0.01172,0.2109375 h 2.789062 c 0.210938,0 0.246094,0 0.246094,-0.2109375 0,-0.984375 -0.539062,-1.9570312 -1.78125,-1.9570312 -1.160156,0 -2.074219,1.03125 -2.074219,2.2734375 0,1.33593749 1.042969,2.29687499 2.191407,2.29687499 1.21875,0 1.664062,-1.1015625 1.664062,-1.28906249 0,-0.1054688 -0.08203,-0.1171875 -0.128906,-0.1171875 -0.09375,0 -0.117188,0.058594 -0.128906,0.140625 -0.351563,1.01953124 -1.253907,1.01953124 -1.347657,1.01953124 -0.503906,0 -0.902343,-0.29296875 -1.125,-0.66796875 C 21.438672,-1.2897266 21.438672,-1.9459766 21.438673,-2.2975388 Z m 0,0"
       style="fill:#000000;fill-opacity:1;fill-rule:nonzero;stroke:none"
       aria-label="Leave"
       transform="matrix(1.3333333,0,0,1.3333333,241.26667,127.42667)" />
    <path
       id="path10"
       d="M 19.92091,0 H 52.4266"
       style="fill:none;stroke:#000000;stroke-width:0.3985;stroke-linecap:butt;stroke-linejoin:miter;stroke-miterlimit:10;stroke-dasharray:none;stroke-opacity:1"
       transform="matrix(1.3333333,0,0,-1.3333333,31.006667,122.88933)" />
    <path
       id="path11"
       d="M -4.36018,2.6899 0.29886,0 -4.36018,-2.6899 Z"
       style="fill:#000000;fill-opacity:1;fill-rule:nonzero;stroke:#000000;stroke-width:0.3985;stroke-linecap:butt;stroke-linejoin:miter;stroke-miterlimit:10;stroke-dasharray:none;stroke-opacity:1"
       transform="matrix(1.3333333,0,0,-1.3333333,100.9088,122.88933)" />
    <path
       id="path12"
       d="M 77.06131,17.9658 V 52.20381"
       style="fill:none;stroke:#000000;stroke-width:0.3985;stroke-linecap:butt;stroke-linejoin:miter;stroke-miterlimit:10;stroke-dasharray:2.98883, 2.98883;stroke-dashoffset:0;stroke-opacity:1"
       transform="matrix(1.3333333,0,0,-1.3333333,31.006667,122.88933)" />
    <path
       id="path13"
       d="M -4.36018,2.6899 0.29886,0 -4.36018,-2.6899 Z"
       style="fill:#000000;fill-opacity:1;fill-rule:nonzero;stroke:#000000;stroke-width:0.3985;stroke-linecap:butt;stroke-linejoin:miter;stroke-miterlimit:10;stroke-dasharray:none;stroke-opacity:1"
       transform="matrix(0,-1.3333333,-1.3333333,0,133.75508,53.284253)" />
    <path
       id="path14"
       d="M 93.01953,52.90118 V 18.6632"
       style="fill:none;stroke:#000000;stroke-width:0.3985;stroke-linecap:butt;stroke-linejoin:miter;stroke-miterlimit:10;stroke-dasharray:none;stroke-opacity:1"
       transform="matrix(1.3333333,0,0,-1.3333333,31.006667,122.88933)" />
    <path
       id="path15"
       d="M -4.36018,2.6899 0.29886,0 -4.36018,-2.6899 Z"
       style="fill:#000000;fill-opacity:1;fill-rule:nonzero;stroke:#000000;stroke-width:0.3985;stroke-linecap:butt;stroke-linejoin:miter;stroke-miterlimit:10;stroke-dasharray:none;stroke-opacity:1"
       transform="matrix(0,1.3333333,1.3333333,0,155.03271,98.005067)" />
    <path
       id="path16"
       d="m 116.95686,0 h 32.50569"
       style="fill:none;stroke:#000000;stroke-width:0.3985;stroke-linecap:butt;stroke-linejoin:miter;stroke-miterlimit:10;stroke-dasharray:none;stroke-opacity:1"
       transform="matrix(1.3333333,0,0,-1.3333333,31.006667,122.88933)" />
    <path
       id="path17"
       d="M -4.36018,2.6899 0.29886,0 -4.36018,-2.6899 Z"
       style="fill:#000000;fill-opacity:1;fill-rule:nonzero;stroke:#000000;stroke-width:0.3985;stroke-linecap:butt;stroke-linejoin:miter;stroke-miterlimit:10;stroke-dasharray:none;stroke-opacity:1"
       transform="matrix(1.3333333,0,0,-1.3333333,230.29007,122.88933)" />
    <path
       id="path18"
       d="m 85.04042,34.45596 v 0 0 z"
       style="fill:none;stroke:#ffffff;stroke-width:1;stroke-linecap:butt;stroke-linejoin:miter;stroke-miterlimit:10;stroke-dasharray:none;stroke-opacity:1"
       transform="matrix(1.3333333,0,0,-1.3333333,31.006667,122.88933)" />
  </g>
</svg>
